<?xml version="1.0" encoding="UTF-8" standalone="no"?>
<!DOCTYPE svg PUBLIC "-//W3C//DTD SVG 1.1 Basic//EN" "http://www.w3.org/Graphics/SVG/1.1/DTD/svg11-basic.dtd">
<svg width="20" height="20" viewBox="0 0 20 20" fill="none" xmlns="http://www.w3.org/2000/svg">
    <path d="M2.7788 9.81258L2.703 10L2.7788 10.1875C3.93315 13.0421 6.6859 14.9167 9.79317 14.9167H10.2073C13.2368 14.9167 15.9809 13.0381 17.2174 10.1997L17.3012 10.0072L17.2225 9.81258C16.0682 6.95787 13.3145 5.08335 10.2073 5.08335H9.79317C6.6859 5.08335 3.93315 6.95794 2.7788 9.81258ZM9.79317 4.66669H10.2073C13.5717 4.66669 16.5799 6.85971 17.799 10.0021C16.5815 13.2146 13.5774 15.3334 10.2065 15.3334H9.79234C6.33364 15.3334 3.33585 13.2097 2.19776 10.0076C3.41707 6.86218 6.42613 4.66669 9.79317 4.66669Z" fill="black" stroke="black"/>
    <path d="M9.95937 6.41669C7.96937 6.41669 6.31104 8.08335 6.31104 10.0834C6.31104 12.0834 7.96937 13.75 9.95937 13.75C11.9494 13.75 13.6077 12.0834 13.6077 10.0834C13.6077 8.00002 11.9494 6.41669 9.95937 6.41669ZM9.95937 12.25C8.79854 12.25 7.80354 11.25 7.80354 10.0834C7.80354 8.91669 8.79854 7.91669 9.95937 7.91669C11.1202 7.91669 12.1144 8.91669 12.1144 10.0834C12.1985 11.25 11.2027 12.25 9.95937 12.25Z" fill="black"/>
</svg>