<?xml version="1.0" encoding="UTF-8" standalone="no"?>
<!DOCTYPE svg PUBLIC "-//W3C//DTD SVG 1.1 Basic//EN" "http://www.w3.org/Graphics/SVG/1.1/DTD/svg11-basic.dtd">
<svg width="20" height="20" viewBox="0 0 20 20" fill="none" xmlns="http://www.w3.org/2000/svg">
    <path d="M11.6144 10.0834V10.1014L11.6157 10.1193C11.6767 10.9652 10.9456 11.7509 9.9594 11.7509C9.07636 11.7509 8.30273 10.9764 8.30273 10.0834C8.30273 9.19059 9.07611 8.41669 9.9594 8.41669C10.8415 8.41669 11.6144 9.19021 11.6144 10.0834Z" fill="black" stroke="black"/>
    <path d="M10.2065 4.16669H9.79317C6.144 4.16669 2.90984 6.58335 1.6665 10C2.82734 13.5 6.06067 15.8334 9.79317 15.8334H10.2065C13.8557 15.8334 17.0898 13.5 18.3332 10C17.0898 6.58335 13.8557 4.16669 10.2065 4.16669ZM9.959 13.75C7.96817 13.75 6.30984 12.0834 6.30984 10.0834C6.30984 8.08419 7.96817 6.41752 9.959 6.41752C11.949 6.41752 13.6073 8.00002 13.6073 10.0834C13.6073 12.0834 11.949 13.75 9.959 13.75Z" fill="black"/>
</svg>